<svg xmlns="http://www.w3.org/2000/svg" version="1.1" xmlns:xlink="http://www.w3.org/1999/xlink" xmlns:svgjs="http://svgjs.dev/svgjs" width="812" height="802.67"><svg id="SvgjsSvg1095" data-name="Layer 1" xmlns="http://www.w3.org/2000/svg" xmlns:xlink="http://www.w3.org/1999/xlink" viewBox="0 0 812 802.67">
  <defs>
    <style>
      .cls-1 {
        stroke: #8dc63f;
      }

      .cls-1, .cls-2, .cls-3, .cls-4, .cls-5, .cls-6, .cls-7, .cls-8 {
        fill: none;
        stroke-linecap: round;
        stroke-miterlimit: 10;
        stroke-width: 35px;
      }

      .cls-1, .cls-8 {
        opacity: .83;
      }

      .cls-9 {
        fill: url(#linear-gradient-3);
      }

      .cls-10 {
        fill: url(#linear-gradient-2);
      }

      .cls-2, .cls-3 {
        opacity: .8;
      }

      .cls-2, .cls-8 {
        stroke: #2e3192;
      }

      .cls-11 {
        fill: url(#linear-gradient);
      }

      .cls-12 {
        fill: #2b3990;
      }

      .cls-12, .cls-13, .cls-14 {
        font-family: Tahoma, Tahoma;
        font-size: 72.62px;
      }

      .cls-3 {
        stroke: #662d91;
      }

      .cls-15, .cls-16, .cls-17, .cls-18, .cls-19, .cls-20, .cls-21, .cls-22, .cls-23, .cls-24, .cls-25, .cls-26, .cls-27, .cls-28, .cls-29, .cls-30, .cls-31, .cls-32 {
        fill: #ed1788;
      }

      .cls-13 {
        fill: #21409a;
        opacity: .31;
      }

      .cls-4 {
        stroke: #92278f;
      }

      .cls-4, .cls-7 {
        opacity: .76;
      }

      .cls-16 {
        opacity: 0;
      }

      .cls-5 {
        opacity: .93;
        stroke: #1c75bc;
      }

      .cls-6 {
        opacity: .61;
      }

      .cls-6, .cls-7 {
        stroke: #ec008c;
      }

      .cls-14 {
        fill: #ec008c;
      }

      .cls-17 {
        opacity: .53;
      }

      .cls-18 {
        opacity: .57;
      }

      .cls-19 {
        opacity: .67;
      }

      .cls-20 {
        opacity: .66;
      }

      .cls-21 {
        opacity: .36;
      }

      .cls-22 {
        opacity: .38;
      }

      .cls-23 {
        opacity: .42;
      }

      .cls-24 {
        opacity: .29;
      }

      .cls-25 {
        opacity: .33;
      }

      .cls-26 {
        opacity: .32;
      }

      .cls-27 {
        opacity: .69;
      }

      .cls-28 {
        opacity: .68;
      }

      .cls-29 {
        opacity: .78;
      }

      .cls-30 {
        opacity: .77;
      }

      .cls-31 {
        opacity: .82;
      }

      .cls-32 {
        opacity: .04;
      }

      .cls-33 {
        opacity: .25;
      }

      .cls-33, .cls-34 {
        fill: #fff;
        isolation: isolate;
      }

      .cls-34 {
        opacity: .6;
      }
    </style>
    <linearGradient id="SvgjsLinearGradient1094" x1="108.75" y1="143.1" x2="95.86" y2="138.68" gradientTransform="translate(-54.59 640.88) rotate(46.35) scale(1 -1)" gradientUnits="userSpaceOnUse">
      <stop offset="0" stop-color="#34679a"></stop>
      <stop offset=".17" stop-color="#25568a"></stop>
      <stop offset=".44" stop-color="#164375"></stop>
      <stop offset=".72" stop-color="#1c3968"></stop>
      <stop offset="1" stop-color="#1b3665"></stop>
    </linearGradient>
    <linearGradient id="SvgjsLinearGradient1093" x1="120.09" y1="155.38" x2="131.7" y2="164.43" gradientTransform="translate(-54.59 640.88) rotate(46.35) scale(1 -1)" gradientUnits="userSpaceOnUse">
      <stop offset="0" stop-color="#ed1b68"></stop>
      <stop offset=".49" stop-color="#ad1f69"></stop>
      <stop offset=".83" stop-color="#772167"></stop>
      <stop offset="1" stop-color="#642165"></stop>
    </linearGradient>
    <linearGradient id="SvgjsLinearGradient1092" x1="109.13" y1="630.23" x2="126.05" y2="602.02" gradientTransform="translate(492.9 118.57) rotate(46.35)" gradientUnits="userSpaceOnUse">
      <stop offset="0" stop-color="#88c540"></stop>
      <stop offset=".03" stop-color="#85c441"></stop>
      <stop offset=".22" stop-color="#6bbe45"></stop>
      <stop offset=".41" stop-color="#4eb748"></stop>
      <stop offset=".6" stop-color="#3ca849"></stop>
      <stop offset=".8" stop-color="#369d47"></stop>
      <stop offset="1" stop-color="#369946"></stop>
    </linearGradient>
  </defs>
  <path class="cls-7" d="M85.45,592.83c-19.02-34.65-32.07-72.72-38.37-112.94-8.6-54.89-4-109.81,12.9-161.09"></path>
  <path class="cls-4" d="M60.03,320.24c16.05-48.89,42.2-92.66,76.48-129.03,27.12-28.77,59.32-52.9,95.65-71.27,49.58-25.07,103.25-37.6,157.25-37.3"></path>
  <path class="cls-8" d="M165.23,574.02c-40.17-61.23-55.06-138.67-34.67-214.99,15.58-58.31,49.35-106.9,93.57-141.32"></path>
  <path class="cls-1" d="M223,218.6c57.54-45.3,133.41-66.81,211.2-53.06,59.43,10.5,110.75,39.96,148.85,81.04"></path>
  <path class="cls-1" d="M402,693.91c-90.74,4.73-181.59-37.11-235.69-118.17"></path>
  <path class="cls-6" d="M580.27,243.5c55.87,58.39,84.59,141.41,70.54,227.31-8.02,49.01-28.93,92.7-58.71,128.16"></path>
  <path class="cls-2" d="M592.13,598.99c-16.05,19.14-35.08,36.32-56.95,50.84-41.38,27.46-87.63,41.84-133.88,44.13"></path>
  <text class="cls-14" transform="translate(96.02 630.07) rotate(53.46)" svgjs:data="{&quot;leading&quot;:&quot;1.3&quot;}"><tspan x="0" y="0"> </tspan></text>
  <text class="cls-14" transform="translate(110.93 650.05) rotate(49.45)" svgjs:data="{&quot;leading&quot;:&quot;1.3&quot;}"><tspan x="0" y="0"> </tspan></text>
  <text class="cls-14" transform="translate(127.53 669.9) rotate(43.84)" svgjs:data="{&quot;leading&quot;:&quot;1.3&quot;}"><tspan x="0" y="0">E</tspan></text>
  <text class="cls-14" transform="translate(160.12 700.93) rotate(36.33)" svgjs:data="{&quot;leading&quot;:&quot;1.3&quot;}"><tspan x="0" y="0">A</tspan></text>
  <text class="cls-14" transform="translate(198.71 728.72) rotate(29.2)" svgjs:data="{&quot;leading&quot;:&quot;1.3&quot;}"><tspan x="0" y="0">L</tspan></text>
  <text class="cls-14" transform="translate(227.83 744.9) rotate(24.58)" svgjs:data="{&quot;leading&quot;:&quot;1.3&quot;}"><tspan x="0" y="0">-</tspan></text>
  <text class="cls-14" transform="translate(249.72 755.42) rotate(19.36)" svgjs:data="{&quot;leading&quot;:&quot;1.3&quot;}"><tspan x="0" y="0">T</tspan></text>
  <text class="cls-14" transform="translate(293.28 769.94) rotate(13.83)" svgjs:data="{&quot;leading&quot;:&quot;1.3&quot;}"><tspan x="0" y="0">I</tspan></text>
  <text class="cls-14" transform="translate(323.42 777.86) rotate(5.99)" svgjs:data="{&quot;leading&quot;:&quot;1.3&quot;}"><tspan x="0" y="0">M</tspan></text>
  <text class="cls-14" transform="translate(383.97 783.28) rotate(-2.63)" svgjs:data="{&quot;leading&quot;:&quot;1.3&quot;}"><tspan x="0" y="0">E</tspan></text>
  <text class="cls-14" transform="translate(427.82 780.66) rotate(-8.31)" svgjs:data="{&quot;leading&quot;:&quot;1.3&quot;}"><tspan x="0" y="0"> </tspan></text>
  <text class="cls-12" transform="translate(453.73 777.28) rotate(-14.36)" svgjs:data="{&quot;leading&quot;:&quot;1.3&quot;}"><tspan x="0" y="0">R</tspan></text>
  <text class="cls-12" transform="translate(501.44 764.62) rotate(-21.97)" svgjs:data="{&quot;leading&quot;:&quot;1.3&quot;}"><tspan x="0" y="0">E</tspan></text>
  <text class="cls-12" transform="translate(542.89 747.61) rotate(-29.14)" svgjs:data="{&quot;leading&quot;:&quot;1.3&quot;}"><tspan x="0" y="0">S</tspan></text>
  <text class="cls-12" transform="translate(582.04 725.72) rotate(-36.91)" svgjs:data="{&quot;leading&quot;:&quot;1.3&quot;}"><tspan x="0" y="0">U</tspan></text>
  <text class="cls-12" transform="translate(624.25 693.92) rotate(-46.07)" svgjs:data="{&quot;leading&quot;:&quot;1.3&quot;}"><tspan x="0" y="0">M</tspan></text>
  <text class="cls-12" transform="translate(665.76 649.49) rotate(-54.68)" svgjs:data="{&quot;leading&quot;:&quot;1.3&quot;}"><tspan x="0" y="0">E</tspan></text>
  <text class="cls-13" transform="translate(692.82 612.15) rotate(-64.01)" svgjs:data="{&quot;leading&quot;:&quot;1.3&quot;}"><tspan x="0" y="0">™</tspan></text>
  <line class="cls-5" x1="389.4" y1="82.64" x2="387.85" y2="427.8"></line>
  <line class="cls-3" x1="387.85" y1="427.8" x2="727.55" y2="530.52"></line>
  <g>
    <rect class="cls-15" x="427.32" y="69.4" width="32.14" height="32.14"></rect>
    <rect class="cls-26" x="427.32" y="20.99" width="32.14" height="32.14"></rect>
    <rect class="cls-25" x="480.64" y="69.4" width="32.14" height="32.14"></rect>
    <rect class="cls-15" x="480.64" y="20.99" width="32.14" height="32.14"></rect>
    <rect class="cls-15" x="529.05" y="69.4" width="32.14" height="32.14"></rect>
    <rect class="cls-30" x="529.05" y="20.99" width="32.14" height="32.14"></rect>
    <rect class="cls-15" x="529.05" y="117.81" width="32.14" height="32.14"></rect>
    <rect class="cls-28" x="577.46" y="117.81" width="32.14" height="32.14"></rect>
    <rect class="cls-24" x="577.46" y="163.2" width="32.14" height="32.14"></rect>
    <rect class="cls-16" x="622.85" y="117.81" width="32.14" height="32.14"></rect>
    <rect class="cls-15" x="622.85" y="163.2" width="32.14" height="32.14"></rect>
    <rect class="cls-29" x="622.85" y="210.09" width="32.14" height="32.14"></rect>
    <rect class="cls-31" x="668.23" y="117.81" width="32.14" height="32.14"></rect>
    <rect class="cls-32" x="713.62" y="117.81" width="32.14" height="32.14"></rect>
    <rect class="cls-15" x="759" y="117.81" width="32.14" height="32.14"></rect>
    <rect class="cls-22" x="668.23" y="163.2" width="32.14" height="32.14"></rect>
    <rect class="cls-15" x="668.23" y="210.09" width="32.14" height="32.14"></rect>
    <rect class="cls-15" x="668.23" y="255.48" width="32.14" height="32.14"></rect>
    <rect class="cls-15" x="713.62" y="163.2" width="32.14" height="32.14"></rect>
    <rect class="cls-20" x="759" y="163.2" width="32.14" height="32.14"></rect>
    <rect class="cls-17" x="713.62" y="210.09" width="32.14" height="32.14"></rect>
    <rect class="cls-23" x="713.62" y="255.48" width="32.14" height="32.14"></rect>
    <rect class="cls-23" x="713.62" y="303.48" width="32.14" height="32.14"></rect>
    <rect class="cls-23" x="667.62" y="303.48" width="32.14" height="32.14"></rect>
    <rect class="cls-15" x="759" y="210.09" width="32.14" height="32.14"></rect>
    <rect class="cls-15" x="759" y="303.09" width="32.14" height="32.14"></rect>
    <rect class="cls-16" x="759" y="255.48" width="32.14" height="32.14"></rect>
    <rect class="cls-18" x="577.46" y="69.4" width="32.14" height="32.14"></rect>
    <rect class="cls-15" x="622.85" y="69.4" width="32.14" height="32.14"></rect>
    <rect class="cls-19" x="668.23" y="69.4" width="32.14" height="32.14"></rect>
    <rect class="cls-15" x="713.62" y="69.4" width="32.14" height="32.14"></rect>
    <rect class="cls-15" x="759" y="69.4" width="32.14" height="32.14"></rect>
    <rect class="cls-27" x="577.46" y="20.99" width="32.14" height="32.14"></rect>
    <rect class="cls-16" x="622.85" y="20.99" width="32.14" height="32.14"></rect>
    <rect class="cls-15" x="668.23" y="20.99" width="32.14" height="32.14"></rect>
    <rect class="cls-21" x="713.62" y="20.99" width="32.14" height="32.14"></rect>
    <rect class="cls-16" x="759" y="20.99" width="32.14" height="32.14"></rect>
  </g>
  <g>
    <polygon class="cls-11" points="133.47 592.06 121.48 629.6 118.17 626.13 101.03 642.49 91.3 632.29 133.47 592.06"></polygon>
    <path class="cls-10" d="M152.24,609.75c6.1,7.32,9.37,17.53,1.96,25.39-3.98,4.23-8.05,6.5-13.84,5.99-2.57-.23-5.58-1.02-7.61-2.64l2.81-10.72.22-.12c.17.15.46.33.67.4,1.87.58,3.57.34,5.19-.71,1.57-1.02,3.04-2.64,3.21-4.66.18-2.13-.97-4.48-2.24-6.12-.92-1.19-2.17-2.28-3.11-3.47-.02-.08.45-1.27.5-1.48.91-3.65,1.82-7.48,2.96-10.99.03-.1-.2-.43.16-.45,2.87,3.27,6.33,6.26,9.1,9.59h0Z"></path>
    <path class="cls-9" d="M132.99,626.2l-10.92,38.49-6.1-6.53c-.09-.19.7-2.19.8-2.53,3.4-11.41,6.97-22.78,10.56-34.19.06-.18-.07-.44.05-.64l5.61,5.4h0ZM136.14,592.83l-7.11,22.81,6.62-6.31h.21s1.35,1.42,1.35,1.42l3.77-12.85-4.83-5.06h0Z"></path>
    <path class="cls-33" d="M153.31,612.21s12.84,17.38-5.6,27.08c15.75-9.9,5.6-27.08,5.6-27.08Z"></path>
    <polygon class="cls-33" points="110.81 614.62 92.37 632.21 98.28 638.4 93.61 632.34 110.81 614.62"></polygon>
    <polygon class="cls-33" points="122.76 638.08 116.91 657.93 121.52 662.76 117.99 657.72 122.76 638.08"></polygon>
    <polygon class="cls-34" points="140.15 597.83 136.65 594.16 134.43 601.2 137.07 595.84 140.15 597.83"></polygon>
  </g>
</svg><style>@media (prefers-color-scheme: light) { :root { filter: none; } }
@media (prefers-color-scheme: dark) { :root { filter: none; } }
</style></svg>